<svg version="1.1" id="Layer_1" xmlns="http://www.w3.org/2000/svg" xmlns:xlink="http://www.w3.org/1999/xlink" x="0px" y="0px"
	 width="100%" viewBox="0 0 2816 1536" enable-background="new 0 0 2816 1536" xml:space="preserve">
<path fill="none" opacity="1.000000" stroke="#1c81edae" stroke-linecap="round" stroke-linejoin="round" stroke-width="5.000000"
	d="
M1526.000000,541.000000 
	C1519.406250,545.882690 1521.165894,553.963806 1520.488037,560.054321 
	C1517.936401,582.976990 1515.245361,606.073669 1521.798828,629.057373 
	C1524.360352,638.040466 1526.463013,647.827820 1525.643066,656.967957 
	C1523.659058,679.085083 1531.592041,699.246948 1536.308594,719.929626 
	C1541.067993,740.800354 1543.337769,761.878845 1546.408813,782.940430 
	C1548.358521,796.312317 1547.464722,809.690552 1549.583008,823.066040 
	C1552.241699,839.854248 1548.182861,856.978760 1547.543701,873.982849 
	C1547.070190,886.583069 1545.529297,899.368103 1543.886963,911.985291 
	C1539.951660,942.217224 1536.539917,972.714111 1527.601196,1001.877747 
	C1521.770752,1020.900146 1519.205566,1039.445801 1521.875732,1059.016968 
	C1522.679321,1064.907349 1523.110718,1071.256348 1521.795898,1076.952881 
	C1517.489380,1095.612183 1522.228638,1113.890869 1524.522827,1131.933472 
	C1527.271362,1153.548462 1527.829834,1174.314819 1524.519409,1196.078979 
	C1518.973389,1232.541138 1507.984009,1267.715332 1501.772461,1303.961060 
	C1500.343750,1312.297729 1498.628052,1320.660889 1496.907959,1328.980957 
	C1495.419678,1336.180176 1498.309204,1343.483276 1497.490234,1349.935303 
	C1493.951416,1377.811157 1510.964600,1395.787598 1525.933716,1415.051514 
	C1526.131226,1415.305664 1526.297241,1416.119019 1526.955566,1417.032104 
	C1537.230347,1431.283203 1537.565308,1434.245972 1519.849487,1443.718384 
	C1508.082642,1450.010132 1494.145752,1450.637695 1480.976074,1451.705566 
	C1469.343506,1452.648926 1463.437988,1443.904541 1460.082642,1433.972046 
	C1456.515259,1423.411621 1454.081665,1412.331543 1445.931763,1404.067261 
	C1442.489136,1400.576294 1443.628418,1396.454346 1444.196289,1393.032593 
	C1446.902832,1376.727661 1443.181885,1359.812500 1446.692261,1344.155151 
	C1449.928955,1329.718994 1453.235352,1315.537354 1451.760864,1301.024292 
	C1449.522095,1278.990356 1448.544189,1256.867920 1444.445679,1234.916748 
	C1440.960327,1216.248901 1437.521606,1197.289429 1437.917358,1177.998291 
	C1438.166870,1165.837769 1439.696045,1153.544067 1442.552612,1142.138428 
	C1447.540649,1122.222168 1443.553101,1103.802612 1438.983521,1085.004028 
	C1435.066162,1068.889038 1433.554932,1052.470703 1431.827637,1036.018066 
	C1429.587646,1014.681885 1431.612915,993.210327 1429.582153,972.040100 
	C1427.661011,952.013428 1425.346191,931.927917 1422.392822,911.941956 
	C1419.897827,895.057678 1419.140259,877.787476 1415.654175,861.072144 
	C1413.769775,852.036560 1409.391235,843.584045 1412.000000,834.000000 
"/>
<path fill="none" opacity="1.000000" stroke="#1c81edae" stroke-linecap="round" stroke-linejoin="round" stroke-width="5.000000"
	d="
M1198.000000,885.000000 
	C1200.601440,887.384033 1202.818481,891.821594 1206.887939,889.776855 
	C1210.226929,888.099304 1211.725342,884.418457 1212.165283,880.016541 
	C1214.281128,858.844849 1215.458862,837.569885 1221.682007,816.904236 
	C1223.706665,810.180603 1223.282104,802.051208 1221.743042,795.056519 
	C1218.126343,778.620178 1224.566528,764.208496 1230.309570,750.126221 
	C1238.629883,729.724548 1248.811523,710.023499 1257.625366,689.836426 
	C1268.442383,665.061707 1276.834839,639.242371 1280.132446,612.016052 
	C1282.727417,590.590515 1282.729248,568.720642 1289.988159,547.995850 
	C1291.306274,544.232544 1290.857056,539.447571 1296.809937,537.742920 
	C1303.096313,546.067749 1302.147095,556.612000 1303.710938,566.047913 
	C1307.761597,590.486328 1306.230103,614.862122 1300.315796,639.077148 
	C1299.093506,644.081482 1297.805786,649.743591 1298.171021,654.988098 
	C1299.472168,673.671143 1295.094727,691.333923 1290.046753,709.013306 
	C1283.514526,731.890747 1279.971680,755.265625 1277.765137,778.978149 
	C1276.245239,795.310242 1274.241211,811.633728 1274.168335,828.000732 
	C1274.054810,853.447876 1276.650391,878.747864 1279.738647,904.031921 
	C1281.161133,915.676331 1282.510010,927.352295 1283.828369,939.019409 
	C1286.598755,963.537781 1292.124634,987.383789 1298.941162,1011.016968 
	C1300.717773,1017.176697 1302.212769,1023.354858 1302.125977,1030.001587 
	C1301.807739,1054.330811 1302.320801,1078.672485 1301.877319,1102.997803 
	C1301.619141,1117.162598 1298.206177,1131.041138 1296.346924,1145.046021 
	C1294.694336,1157.493286 1294.503052,1170.550537 1296.302612,1182.956055 
	C1300.413452,1211.294678 1307.250244,1239.163696 1314.033325,1266.991821 
	C1319.518799,1289.496216 1326.725830,1312.196777 1327.100952,1335.014771 
	C1327.425781,1354.768311 1330.178955,1376.768799 1314.178101,1394.163818 
	C1305.834473,1403.234375 1299.303467,1413.978271 1292.014526,1424.010498 
	C1288.953369,1428.223877 1289.558228,1432.081787 1292.950562,1436.042358 
	C1299.326416,1443.486450 1308.311890,1446.099609 1317.070190,1447.586914 
	C1322.275269,1448.470825 1327.663696,1449.497070 1332.967896,1450.232056 
	C1352.249146,1452.904053 1361.920776,1447.110229 1365.811890,1427.961792 
	C1367.357178,1420.357910 1369.634644,1413.209595 1375.157104,1408.172241 
	C1381.737549,1402.169678 1380.991455,1394.630981 1379.542725,1388.101440 
	C1378.326782,1382.621216 1377.766846,1377.300781 1378.139526,1372.009888 
	C1379.238647,1356.403442 1376.807251,1341.135254 1373.788574,1326.042236 
	C1371.678101,1315.489746 1372.077026,1305.528198 1373.644165,1294.947266 
	C1375.342163,1283.482422 1374.718628,1271.663696 1375.641357,1259.971680 
	C1376.916382,1243.815186 1380.223511,1227.979004 1382.566040,1212.083374 
	C1385.356445,1193.149414 1386.131226,1174.779663 1383.095459,1155.984619 
	C1380.901489,1142.401611 1376.883789,1128.783447 1378.286255,1115.029175 
	C1379.625610,1101.893799 1382.344727,1088.691406 1386.278687,1076.087036 
	C1390.198608,1063.527466 1390.077637,1050.654907 1391.778320,1037.970215 
	C1394.796631,1015.455505 1392.823120,992.595459 1394.407837,970.028625 
	C1395.838745,949.650940 1398.675781,929.260193 1401.555786,908.937073 
	C1403.423828,895.755615 1406.327881,882.502258 1406.011597,868.999756 
	C1405.893066,863.940491 1406.206787,858.963867 1410.000000,855.000000 
"/>
<path fill="none" opacity="1.000000" stroke="#1c81edae" stroke-linecap="round" stroke-linejoin="round" stroke-width="5.000000"
	d="
M1371.000000,262.000000 
	C1380.318237,266.796387 1386.565918,275.997131 1397.941895,278.288391 
	C1413.273071,281.376282 1426.855225,280.762909 1440.138794,271.192627 
	C1453.692139,261.428040 1460.996948,248.174393 1466.002441,233.000809 
	C1467.095947,229.686142 1468.020386,226.320236 1470.988037,223.984741 
	C1483.703979,213.977478 1485.966309,199.916046 1486.011230,185.000031 
	C1486.021973,181.414261 1485.216797,178.967377 1481.038818,177.854431 
	C1476.065308,176.529556 1475.942627,173.024231 1476.791260,167.964981 
	C1482.519165,133.815903 1469.385376,98.768082 1428.039307,89.818153 
	C1394.687988,82.598732 1362.130981,97.735687 1350.914551,124.964806 
	C1344.163940,141.352402 1346.030884,158.149139 1346.554199,175.253113 
	C1338.926270,179.584274 1334.414185,188.928650 1338.280884,197.878647 
	C1342.394897,207.400757 1342.493042,219.567535 1353.957886,225.087402 
	C1356.904053,226.505783 1356.575562,230.386139 1357.875244,233.060623 
	C1359.702393,236.820679 1359.701904,241.766678 1362.166382,244.867798 
	C1373.064209,258.581238 1367.838013,273.244629 1366.231201,288.025146 
	C1365.233887,297.198730 1359.979980,301.908691 1353.000488,306.000854 
	C1331.361206,318.688293 1309.010254,328.876007 1284.100220,334.447998 
	C1257.020142,340.505371 1243.535522,361.554352 1235.947876,386.984436 
	C1228.288086,412.655670 1229.744507,438.764160 1230.735596,465.009979 
	C1231.071655,473.909943 1231.478516,483.282471 1229.682251,491.934021 
	C1226.717773,506.212463 1224.981812,520.790222 1224.551025,535.016663 
	C1223.847290,558.263062 1216.197266,578.980713 1208.115723,600.044373 
	C1199.747070,621.856445 1196.636719,644.890686 1193.932861,667.992126 
	C1190.178833,700.065002 1184.894897,731.872375 1176.068481,763.019409 
	C1173.758423,771.171509 1166.973755,775.151550 1160.839600,778.724548 
	C1149.759521,785.178345 1141.752808,794.239929 1136.251465,805.127075 
	C1131.265259,814.994812 1122.394531,821.929688 1117.397339,832.213684 
	C1120.182129,835.173584 1121.856812,837.827026 1127.074951,836.247559 
	C1133.764038,834.222839 1150.179688,821.923706 1153.000000,815.000000 
"/>
<path fill="none" opacity="1.000000" stroke="#1c81edae" stroke-linecap="round" stroke-linejoin="round" stroke-width="5.000000"
	d="
M1454.000000,263.000000 
	C1457.119507,268.026733 1456.068237,273.632172 1455.922852,278.997894 
	C1455.605225,290.718658 1459.929688,300.055878 1470.044312,305.923706 
	C1490.565063,317.828613 1511.479980,329.354858 1535.033813,333.821960 
	C1563.179932,339.160034 1577.841797,357.656097 1585.919067,383.025787 
	C1592.860474,404.827240 1595.533936,426.913147 1592.391113,450.053101 
	C1590.193359,466.233765 1592.993408,482.728821 1595.554565,499.069824 
	C1596.720703,506.510071 1597.985840,514.244507 1598.078491,521.999084 
	C1598.385498,547.710022 1603.221313,572.303406 1613.698975,596.132385 
	C1621.712524,614.357544 1625.601929,634.163208 1627.922363,654.009094 
	C1632.091919,689.667786 1637.819092,725.055603 1646.265625,759.935669 
	C1647.591309,765.409241 1650.550415,770.869141 1656.878418,774.228882 
	C1670.709595,781.572388 1681.131104,792.815674 1687.945068,807.026367 
	C1692.320557,816.151611 1700.780151,822.329407 1705.347168,830.565674 
	C1704.229492,835.322449 1701.075806,837.077698 1698.022827,836.772339 
	C1694.590332,836.429016 1689.802734,835.278076 1688.287231,832.822815 
	C1683.758911,825.485901 1672.308838,825.115662 1671.000000,815.000000 
"/>
<path fill="none" opacity="1.000000" stroke="#1c81edae" stroke-linecap="round" stroke-linejoin="round" stroke-width="5.000000"
	d="
M1527.000000,521.000000 
	C1528.092773,529.226807 1528.476685,536.951965 1532.219971,545.347778 
	C1538.454956,559.332397 1541.388794,575.286926 1541.888550,591.003540 
	C1542.923828,623.569092 1551.622070,654.095886 1563.838013,684.065979 
	C1575.801025,713.415588 1592.555908,740.792297 1600.192505,771.952820 
	C1600.572266,773.502563 1602.243774,774.938110 1602.009033,777.001038 
	C1598.308105,809.529114 1609.436035,840.823730 1610.038208,872.999268 
	C1610.075806,875.004822 1610.556396,877.025818 1611.017578,878.995911 
	C1614.337280,893.179382 1615.758423,893.527222 1627.000000,883.000000 
"/>
<path fill="none" opacity="1.000000" stroke="#1c81edae" stroke-linecap="round" stroke-linejoin="round" stroke-width="5.000000"
	d="
M1151.000000,822.000000 
	C1154.770264,833.748596 1147.398926,843.429321 1144.871948,853.969299 
	C1142.837769,862.454224 1139.640747,870.658508 1137.009888,879.003113 
	C1135.445801,883.963989 1133.984497,890.060730 1139.173096,892.653625 
	C1144.030029,895.080688 1146.743408,888.977722 1150.000000,886.000000 
"/>
<path fill="none" opacity="1.000000" stroke="#1c81edae" stroke-linecap="round" stroke-linejoin="round" stroke-width="5.000000"
	d="
M1673.000000,823.000000 
	C1668.823608,835.423279 1676.959473,845.695007 1679.260376,856.946716 
	C1680.847046,864.705200 1683.923706,872.256531 1686.269531,879.917480 
	C1687.901855,885.248535 1689.276123,889.518860 1683.972412,892.957397 
	C1678.124390,896.748840 1677.459351,889.414673 1674.000000,888.000000 
"/>
<path fill="none" opacity="1.000000" stroke="#1c81edae" stroke-linecap="round" stroke-linejoin="round" stroke-width="5.000000"
	d="
M1199.000000,851.000000 
	C1199.734497,861.093384 1198.982666,871.619507 1196.249878,880.776123 
	C1194.187866,887.684937 1191.844727,895.405701 1187.927124,901.956421 
	C1184.053955,908.432739 1181.458130,907.776550 1174.000000,899.000000 
"/>
<path fill="none" opacity="1.000000" stroke="#1c81edae" stroke-linecap="round" stroke-linejoin="round" stroke-width="7.000000"
	d="
M1182.000000,849.000000 
	C1180.848022,865.346497 1175.820435,880.966370 1173.000000,897.000000 
"/>
<path fill="none" opacity="1.000000" stroke="#1c81edae" stroke-linecap="round" stroke-linejoin="round" stroke-width="5.000000"
	d="
M1641.000000,851.000000 
	C1643.666748,865.000000 1646.116455,879.046387 1649.094849,892.979736 
	C1650.509888,899.599792 1655.290649,905.240417 1660.313965,908.518860 
	C1664.495361,911.247803 1668.096436,906.714600 1668.085693,900.999817 
	C1668.076294,896.005188 1667.016724,890.886719 1669.006836,886.002747 
	C1669.509644,884.768860 1671.723633,883.882568 1671.052368,885.030579 
	C1670.991943,885.133667 1671.666748,885.666626 1672.000000,886.000000 
"/>
<path fill="none" opacity="1.000000" stroke="#1c81edae" stroke-linecap="round" stroke-linejoin="round" stroke-width="5.000000"
	d="
M1152.000000,884.000000 
	C1158.387451,886.315308 1157.101685,893.134521 1155.571533,895.749329 
	C1152.074707,901.724976 1154.078979,906.454529 1158.188110,908.647644 
	C1163.409546,911.434509 1166.750488,906.654907 1169.060181,902.030090 
	C1169.659668,900.830017 1171.000000,900.000000 1172.000000,899.000000 
"/>
<path fill="none" opacity="1.000000" stroke="#1c81edae" stroke-linecap="round" stroke-linejoin="round" stroke-width="7.000000"
	d="
M1660.000000,850.000000 
	C1662.959961,861.773376 1665.677490,873.615967 1670.000000,885.000000 
"/>
<path fill="none" opacity="1.000000" stroke="#1c81edae" stroke-linecap="round" stroke-linejoin="round" stroke-width="5.000000"
	d="
M1624.000000,852.000000 
	C1625.602539,855.206421 1625.343506,858.720642 1624.909790,861.988037 
	C1623.024292,876.192017 1632.572144,887.619690 1634.126343,900.985291 
	C1634.444824,903.723999 1636.549316,905.779053 1639.993774,906.072449 
	C1646.076660,906.590576 1646.231323,900.926880 1649.000000,898.000000 
"/>
<path fill="none" opacity="1.000000" stroke="#1c81edae" stroke-linecap="round" stroke-linejoin="round" stroke-width="7.000000"
	d="
M1165.000000,847.000000 
	C1161.068115,858.919006 1159.009399,871.410278 1154.000000,883.000000 
"/>
</svg>